<?xml version="1.0" encoding="UTF-8"?>
<svg id="Layer_2" data-name="Layer 2" xmlns="http://www.w3.org/2000/svg" xmlns:xlink="http://www.w3.org/1999/xlink" viewBox="0 0 788.05 839">
  <defs>
    <style>
      .cls-1 {
        fill: #fff;
      }

      .cls-2 {
        clip-path: url(#clippath);
      }
    </style>
    <clipPath id="clippath">
      <polygon id="SVGID-2" data-name="SVGID" class="cls-1" points="311.87 839 475.63 839 390.72 672.48 311.87 839"/>
    </clipPath>
  </defs>
  <g id="Layer_1-2" data-name="Layer 1">
    <g>
      <g>
        <polygon id="SVGID" class="cls-1" points="311.87 839 475.63 839 390.72 672.48 311.87 839"/>
        <g class="cls-2">
          <rect class="cls-1" x="311.87" y="672.48" width="163.76" height="166.52"/>
        </g>
      </g>
      <path class="cls-1" d="M627.9,773.68l-72.49,36.64-18.32-36.3c-49.54-98.28-99.18-196.45-148.83-294.73-45.92,97.49-91.61,194.98-137.41,292.58l-17.19,36.76-73.51-34.49,17.19-36.76c57.57-122.71,115.13-245.42,172.81-368.01l35.4-75.44,37.55,74.3c62.2,123.05,124.4,246.1,186.49,369.14l18.32,36.3Z"/>
      <path class="cls-1" d="M788.05,734.44l-72.49,36.53-18.32-36.19c-105.07-207.98-210.13-415.73-315.2-623.72L73.51,768.37,0,733.87,342.23,4.75c.57-1.25,1.13-2.49,1.7-3.73l73.06-1.02c117.51,232.75,235.12,465.39,352.74,698.14l18.32,36.3Z"/>
    </g>
  </g>
</svg>
